<?xml version="1.0" encoding="UTF-8"?>
<svg xmlns="http://www.w3.org/2000/svg" xmlns:xlink="http://www.w3.org/1999/xlink" width="123.2pt" height="143.6pt" viewBox="0 0 123.2 143.6" version="1.1">
<defs>
<clipPath id="clip1">
  <path d="M 0 0 L 123.199219 0 L 123.199219 143.601563 L 0 143.601563 Z M 0 0 "/>
</clipPath>
<clipPath id="clip2">
  <path d="M 55 17 L 117 17 L 117 143.601563 L 55 143.601563 Z M 55 17 "/>
</clipPath>
</defs>
<g id="surface1">
<path style=" stroke:none;fill-rule:evenodd;fill:rgb(89.0625%,0%,8.616638%);fill-opacity:1;" d="M 1.648438 14.699219 L 61.636719 140.671875 L 121.625 14.703125 C 113.960938 11.136719 105.933594 8.210938 97.691406 6.007813 C 96.039063 5.570313 94.390625 5.15625 92.742188 4.777344 C 82.566406 2.441406 72.113281 1.203125 61.65625 1.199219 L 61.636719 1.199219 C 46.585938 1.199219 31.53125 3.765625 17.300781 8.488281 C 14.535156 9.40625 11.796875 10.40625 9.09375 11.484375 C 6.558594 12.496094 4.078125 13.570313 1.648438 14.699219 Z M 1.648438 14.699219 "/>
<path style=" stroke:none;fill-rule:evenodd;fill:rgb(100%,79.6875%,0%);fill-opacity:1;" d="M 22.488281 11.808594 L 22.464844 17.316406 L 26.222656 22.777344 L 23.261719 23.742188 L 20.570313 19.394531 L 22.105469 24.117188 L 19.238281 25.046875 L 15.65625 14.027344 L 18.523438 13.09375 L 19.917969 17.378906 L 19.796875 12.683594 Z M 31.933594 16.417969 C 32.214844 17.546875 32.386719 18.351563 32.453125 18.835938 C 32.515625 19.320313 32.457031 19.789063 32.273438 20.25 C 32.089844 20.707031 31.785156 21.101563 31.363281 21.429688 C 30.9375 21.757813 30.40625 22 29.773438 22.15625 C 29.171875 22.308594 28.605469 22.34375 28.078125 22.265625 C 27.546875 22.1875 27.089844 21.992188 26.699219 21.667969 C 26.3125 21.347656 26.03125 20.960938 25.859375 20.515625 C 25.6875 20.0625 25.457031 19.261719 25.167969 18.101563 L 24.691406 16.179688 C 24.40625 15.050781 24.234375 14.246094 24.171875 13.757813 C 24.105469 13.277344 24.164063 12.804688 24.351563 12.347656 C 24.535156 11.886719 24.835938 11.496094 25.261719 11.167969 C 25.6875 10.839844 26.214844 10.597656 26.851563 10.4375 C 27.453125 10.289063 28.019531 10.253906 28.546875 10.332031 C 29.074219 10.40625 29.535156 10.605469 29.925781 10.925781 C 30.3125 11.246094 30.59375 11.632813 30.765625 12.082031 C 30.9375 12.53125 31.164063 13.335938 31.453125 14.492188 Z M 28.089844 13.453125 C 27.957031 12.929688 27.847656 12.601563 27.75 12.46875 C 27.65625 12.339844 27.519531 12.292969 27.339844 12.339844 C 27.1875 12.378906 27.085938 12.464844 27.035156 12.605469 C 26.980469 12.742188 27.027344 13.101563 27.171875 13.679688 L 28.480469 18.929688 C 28.644531 19.582031 28.773438 19.980469 28.863281 20.117188 C 28.953125 20.257813 29.097656 20.304688 29.292969 20.253906 C 29.492188 20.207031 29.59375 20.085938 29.609375 19.894531 C 29.617188 19.707031 29.542969 19.28125 29.375 18.617188 Z M 31.925781 9.347656 L 34.019531 8.9375 C 35.414063 8.667969 36.371094 8.535156 36.886719 8.546875 C 37.398438 8.5625 37.855469 8.757813 38.253906 9.140625 C 38.652344 9.523438 38.945313 10.195313 39.132813 11.167969 C 39.304688 12.054688 39.3125 12.667969 39.148438 13.015625 C 38.992188 13.363281 38.59375 13.628906 37.957031 13.816406 C 38.570313 13.847656 39.003906 13.964844 39.253906 14.171875 C 39.5 14.375 39.667969 14.574219 39.757813 14.769531 C 39.847656 14.960938 39.980469 15.519531 40.160156 16.4375 L 40.742188 19.4375 L 37.996094 19.972656 L 37.261719 16.191406 C 37.144531 15.582031 37.019531 15.214844 36.894531 15.085938 C 36.769531 14.960938 36.503906 14.9375 36.097656 15.015625 L 37.097656 20.144531 L 34.136719 20.722656 Z M 35.261719 10.714844 L 35.753906 13.246094 C 36.085938 13.179688 36.308594 13.089844 36.425781 12.972656 C 36.542969 12.855469 36.550781 12.546875 36.453125 12.046875 L 36.332031 11.421875 C 36.261719 11.058594 36.152344 10.835938 36 10.75 C 35.851563 10.660156 35.605469 10.648438 35.261719 10.714844 Z M 40.476563 7.648438 L 43.488281 7.277344 C 44.304688 7.179688 44.941406 7.164063 45.390625 7.238281 C 45.847656 7.3125 46.199219 7.457031 46.449219 7.671875 C 46.699219 7.886719 46.886719 8.160156 47.003906 8.496094 C 47.125 8.828125 47.226563 9.355469 47.316406 10.074219 L 47.441406 11.078125 C 47.53125 11.8125 47.519531 12.355469 47.410156 12.710938 C 47.300781 13.066406 47.050781 13.359375 46.667969 13.589844 C 46.285156 13.816406 45.769531 13.972656 45.117188 14.054688 L 44.3125 14.152344 L 44.882813 18.785156 L 41.890625 19.148438 Z M 43.710938 9.25 L 44.070313 12.175781 C 44.15625 12.167969 44.230469 12.164063 44.289063 12.15625 C 44.566406 12.121094 44.746094 12.03125 44.835938 11.882813 C 44.925781 11.734375 44.945313 11.445313 44.894531 11.023438 L 44.777344 10.078125 C 44.730469 9.683594 44.636719 9.433594 44.5 9.332031 C 44.363281 9.230469 44.101563 9.199219 43.710938 9.25 Z M 55.058594 9.648438 L 52.265625 9.84375 L 52.207031 8.988281 C 52.179688 8.585938 52.125 8.335938 52.046875 8.230469 C 51.96875 8.125 51.84375 8.078125 51.675781 8.089844 C 51.496094 8.105469 51.363281 8.1875 51.28125 8.339844 C 51.199219 8.492188 51.167969 8.722656 51.191406 9.023438 C 51.21875 9.40625 51.289063 9.695313 51.40625 9.882813 C 51.523438 10.070313 51.820313 10.285156 52.308594 10.53125 C 53.699219 11.230469 54.585938 11.824219 54.972656 12.308594 C 55.355469 12.792969 55.585938 13.601563 55.664063 14.738281 C 55.722656 15.558594 55.667969 16.171875 55.503906 16.578125 C 55.335938 16.980469 54.988281 17.335938 54.457031 17.636719 C 53.921875 17.941406 53.289063 18.117188 52.554688 18.167969 C 51.75 18.226563 51.050781 18.121094 50.464844 17.855469 C 49.871094 17.589844 49.472656 17.230469 49.261719 16.769531 C 49.054688 16.308594 48.921875 15.648438 48.859375 14.78125 L 48.808594 14.027344 L 51.597656 13.832031 L 51.695313 15.238281 C 51.726563 15.671875 51.785156 15.945313 51.871094 16.0625 C 51.960938 16.179688 52.101563 16.234375 52.304688 16.21875 C 52.503906 16.207031 52.648438 16.117188 52.734375 15.953125 C 52.820313 15.789063 52.851563 15.550781 52.832031 15.242188 C 52.78125 14.5625 52.660156 14.125 52.460938 13.925781 C 52.253906 13.730469 51.761719 13.414063 50.980469 12.976563 C 50.195313 12.53125 49.675781 12.207031 49.417969 12 C 49.160156 11.792969 48.9375 11.5 48.75 11.113281 C 48.5625 10.730469 48.449219 10.230469 48.40625 9.617188 C 48.34375 8.734375 48.410156 8.078125 48.609375 7.652344 C 48.804688 7.226563 49.148438 6.882813 49.636719 6.613281 C 50.125 6.351563 50.726563 6.191406 51.4375 6.140625 C 52.222656 6.085938 52.894531 6.167969 53.460938 6.378906 C 54.03125 6.59375 54.414063 6.886719 54.625 7.257813 C 54.828125 7.628906 54.960938 8.273438 55.023438 9.191406 Z M 59.273438 6.023438 L 62.28125 6.023438 C 63.230469 6.023438 63.949219 6.09375 64.4375 6.246094 C 64.925781 6.390625 65.324219 6.691406 65.625 7.140625 C 65.925781 7.59375 66.074219 8.320313 66.074219 9.320313 C 66.074219 10 65.96875 10.472656 65.753906 10.738281 C 65.542969 11.007813 65.125 11.210938 64.5 11.355469 C 65.195313 11.511719 65.667969 11.773438 65.917969 12.136719 C 66.164063 12.503906 66.289063 13.0625 66.289063 13.816406 L 66.289063 14.890625 C 66.289063 15.671875 66.199219 16.253906 66.019531 16.632813 C 65.839844 17.007813 65.554688 17.265625 65.164063 17.402344 C 64.773438 17.542969 63.972656 17.609375 62.761719 17.609375 L 59.273438 17.609375 Z M 62.289063 8.003906 L 62.289063 10.582031 C 62.417969 10.578125 62.515625 10.574219 62.589844 10.574219 C 62.886719 10.574219 63.074219 10.5 63.152344 10.355469 C 63.234375 10.210938 63.277344 9.792969 63.277344 9.109375 C 63.277344 8.742188 63.242188 8.492188 63.175781 8.347656 C 63.105469 8.199219 63.023438 8.105469 62.914063 8.070313 C 62.808594 8.03125 62.597656 8.007813 62.289063 8.003906 Z M 62.289063 12.386719 L 62.289063 15.625 C 62.710938 15.613281 62.984375 15.546875 63.101563 15.425781 C 63.21875 15.308594 63.277344 15.015625 63.277344 14.546875 L 63.277344 13.46875 C 63.277344 12.972656 63.222656 12.671875 63.117188 12.566406 C 63.011719 12.460938 62.734375 12.398438 62.289063 12.386719 Z M 68.175781 6.09375 L 70.304688 6.242188 C 71.722656 6.339844 72.679688 6.460938 73.171875 6.605469 C 73.667969 6.75 74.058594 7.058594 74.34375 7.53125 C 74.628906 8.003906 74.734375 8.730469 74.667969 9.71875 C 74.605469 10.617188 74.449219 11.214844 74.203125 11.507813 C 73.960938 11.800781 73.507813 11.957031 72.84375 11.972656 C 73.429688 12.160156 73.816406 12.386719 74.003906 12.648438 C 74.191406 12.910156 74.300781 13.144531 74.335938 13.355469 C 74.375 13.566406 74.355469 14.140625 74.292969 15.074219 L 74.078125 18.121094 L 71.289063 17.925781 L 71.558594 14.085938 C 71.601563 13.464844 71.574219 13.082031 71.488281 12.925781 C 71.402344 12.773438 71.152344 12.679688 70.738281 12.648438 L 70.375 17.863281 L 67.367188 17.652344 Z M 71.042969 8.28125 L 70.863281 10.851563 C 71.203125 10.875 71.441406 10.84375 71.585938 10.761719 C 71.726563 10.679688 71.816406 10.382813 71.851563 9.871094 L 71.894531 9.238281 C 71.921875 8.871094 71.875 8.625 71.75 8.503906 C 71.625 8.378906 71.390625 8.304688 71.042969 8.28125 Z M 79.46875 7.195313 L 78.257813 18.722656 L 75.257813 18.40625 L 76.46875 6.882813 Z M 90.648438 9.089844 L 88.636719 20.503906 L 86.042969 20.046875 L 87.402344 12.339844 L 85.003906 19.863281 L 83.164063 19.539063 L 83.398438 11.816406 L 82.070313 19.34375 L 79.476563 18.886719 L 81.488281 7.476563 L 85.332031 8.152344 C 85.324219 8.859375 85.300781 9.6875 85.261719 10.640625 L 85.160156 13.617188 L 86.777344 8.40625 Z M 97.671875 17.984375 C 97.390625 19.117188 97.164063 19.910156 96.996094 20.367188 C 96.824219 20.824219 96.550781 21.210938 96.175781 21.53125 C 95.796875 21.851563 95.34375 22.054688 94.816406 22.144531 C 94.289063 22.234375 93.703125 22.199219 93.070313 22.042969 C 92.46875 21.890625 91.953125 21.65625 91.523438 21.339844 C 91.089844 21.023438 90.78125 20.632813 90.585938 20.167969 C 90.394531 19.703125 90.328125 19.230469 90.386719 18.753906 C 90.449219 18.273438 90.621094 17.457031 90.910156 16.300781 L 91.390625 14.378906 C 91.671875 13.246094 91.894531 12.453125 92.066406 11.996094 C 92.238281 11.539063 92.511719 11.152344 92.890625 10.832031 C 93.265625 10.515625 93.71875 10.308594 94.25 10.21875 C 94.777344 10.132813 95.359375 10.164063 95.992188 10.324219 C 96.59375 10.472656 97.109375 10.707031 97.539063 11.023438 C 97.96875 11.339844 98.285156 11.730469 98.476563 12.195313 C 98.671875 12.664063 98.738281 13.136719 98.675781 13.609375 C 98.617188 14.089844 98.441406 14.902344 98.152344 16.0625 Z M 95.671875 13.5625 C 95.800781 13.039063 95.855469 12.699219 95.832031 12.539063 C 95.8125 12.378906 95.714844 12.273438 95.53125 12.230469 C 95.378906 12.191406 95.246094 12.222656 95.136719 12.320313 C 95.027344 12.414063 94.898438 12.753906 94.753906 13.335938 L 93.445313 18.585938 C 93.28125 19.238281 93.210938 19.648438 93.222656 19.8125 C 93.238281 19.980469 93.34375 20.085938 93.539063 20.136719 C 93.738281 20.1875 93.886719 20.128906 93.988281 19.96875 C 94.085938 19.804688 94.21875 19.394531 94.382813 18.730469 Z M 101.117188 11.90625 L 103.976563 12.835938 C 104.878906 13.128906 105.539063 13.421875 105.960938 13.714844 C 106.378906 14.003906 106.664063 14.414063 106.808594 14.933594 C 106.957031 15.457031 106.875 16.191406 106.5625 17.144531 C 106.355469 17.789063 106.109375 18.207031 105.824219 18.394531 C 105.539063 18.582031 105.078125 18.648438 104.4375 18.589844 C 105.050781 18.957031 105.417969 19.351563 105.542969 19.777344 C 105.664063 20.199219 105.609375 20.769531 105.378906 21.488281 L 105.046875 22.507813 C 104.804688 23.253906 104.542969 23.777344 104.253906 24.082031 C 103.96875 24.382813 103.617188 24.539063 103.203125 24.550781 C 102.785156 24.5625 102.003906 24.378906 100.851563 24.003906 L 97.535156 22.925781 Z M 103.371094 14.722656 L 102.574219 17.175781 C 102.695313 17.207031 102.792969 17.238281 102.863281 17.261719 C 103.144531 17.351563 103.34375 17.339844 103.464844 17.226563 C 103.589844 17.113281 103.757813 16.730469 103.96875 16.078125 C 104.082031 15.730469 104.128906 15.480469 104.109375 15.320313 C 104.089844 15.160156 104.035156 15.046875 103.945313 14.980469 C 103.855469 14.910156 103.664063 14.824219 103.371094 14.722656 Z M 102.015625 18.890625 L 101.015625 21.972656 C 101.421875 22.089844 101.699219 22.109375 101.847656 22.03125 C 101.996094 21.957031 102.144531 21.695313 102.289063 21.25 L 102.621094 20.222656 C 102.773438 19.753906 102.816406 19.449219 102.75 19.316406 C 102.683594 19.183594 102.4375 19.039063 102.015625 18.890625 Z M 102.015625 18.890625 "/>
<g clip-path="url(#clip1)" clip-rule="nonzero">
<path style=" stroke:none;fill-rule:evenodd;fill:rgb(10.594177%,9.812927%,9.423828%);fill-opacity:1;" d="M 61.636719 22.78125 L 61.636719 56.933594 C 61.546875 56.871094 61.453125 56.8125 61.359375 56.757813 C 60.054688 56.003906 58.828125 56.109375 57.949219 56.878906 C 58.683594 56.652344 59.539063 56.765625 60.433594 57.28125 C 60.859375 57.527344 61.261719 57.847656 61.636719 58.226563 L 61.636719 59.832031 C 61.03125 60.007813 60.34375 60.316406 59.550781 60.796875 C 55.984375 59.703125 52.894531 59.386719 52.390625 61.027344 C 51.886719 62.667969 54.378906 64.902344 57.945313 66 C 59.25 66.402344 60.523438 66.59375 61.636719 66.597656 L 61.636719 69.105469 C 58.402344 67.894531 55.582031 66.90625 53.332031 65.917969 C 51.277344 64.144531 50.363281 61.710938 51.265625 59.890625 C 52.125 58.144531 54.414063 57.453125 56.890625 57.984375 C 56.71875 57.878906 56.546875 57.777344 56.367188 57.679688 C 53.339844 56.042969 50.015625 56.5 48.960938 58.707031 C 48.027344 60.65625 49.171875 63.332031 51.539063 65.0625 C 47.746094 63.066406 46.355469 60.816406 48.554688 56.554688 C 52.859375 48.207031 49.972656 44.535156 44.140625 44.535156 C 46.902344 48.691406 44.328125 49.6875 43.101563 52.664063 C 42.105469 55.085938 41.789063 57.085938 42.214844 58.699219 C 44.742188 68.292969 55.746094 66.457031 61.636719 69.105469 L 61.636719 137.847656 L 12.007813 33.628906 C 27.136719 26.667969 43.945313 22.78125 61.636719 22.78125 Z M 1.648438 14.699219 C 4.078125 13.570313 6.558594 12.496094 9.09375 11.484375 C 11.796875 10.40625 14.535156 9.40625 17.300781 8.488281 C 31.53125 3.765625 46.585938 1.199219 61.636719 1.199219 L 61.65625 1.199219 C 72.113281 1.203125 82.566406 2.441406 92.742188 4.777344 C 94.390625 5.15625 96.039063 5.570313 97.691406 6.007813 C 105.933594 8.210938 113.960938 11.136719 121.625 14.703125 L 61.636719 140.671875 Z M 61.085938 142.355469 L 61.636719 143.511719 L 62.1875 142.355469 L 122.992188 14.671875 L 123.253906 14.117188 L 122.699219 13.855469 C 114.804688 10.140625 106.515625 7.105469 98.003906 4.832031 C 96.359375 4.390625 94.691406 3.976563 93.011719 3.589844 C 82.742188 1.230469 72.195313 -0.0195313 61.65625 -0.0195313 L 61.636719 -0.0195313 C 46.453125 -0.0195313 31.269531 2.566406 16.917969 7.328125 C 14.125 8.253906 11.363281 9.265625 8.644531 10.351563 C 5.941406 11.429688 3.253906 12.597656 0.59375 13.847656 L 0.589844 13.847656 L 0.574219 13.859375 L 0.0195313 14.121094 L 0.285156 14.671875 Z M 61.636719 2.808594 C 82.398438 2.808594 102.121094 7.398438 119.851563 15.605469 L 111.96875 32.152344 C 96.628906 25.089844 79.582031 21.144531 61.636719 21.144531 C 43.695313 21.144531 26.644531 25.089844 11.304688 32.152344 L 3.425781 15.605469 C 21.15625 7.398438 40.875 2.808594 61.636719 2.808594 Z M 22.488281 11.808594 L 22.464844 17.316406 L 26.222656 22.777344 L 23.261719 23.742188 L 20.570313 19.394531 L 22.105469 24.117188 L 19.238281 25.046875 L 15.65625 14.027344 L 18.523438 13.09375 L 19.917969 17.378906 L 19.796875 12.683594 Z M 31.933594 16.417969 C 32.214844 17.546875 32.386719 18.351563 32.453125 18.835938 C 32.515625 19.320313 32.457031 19.789063 32.273438 20.25 C 32.089844 20.707031 31.785156 21.101563 31.363281 21.429688 C 30.9375 21.757813 30.40625 22 29.773438 22.15625 C 29.171875 22.308594 28.605469 22.34375 28.078125 22.265625 C 27.546875 22.1875 27.089844 21.992188 26.699219 21.667969 C 26.3125 21.347656 26.03125 20.960938 25.859375 20.515625 C 25.6875 20.0625 25.457031 19.261719 25.167969 18.101563 L 24.691406 16.179688 C 24.40625 15.050781 24.234375 14.246094 24.171875 13.757813 C 24.105469 13.277344 24.164063 12.804688 24.351563 12.347656 C 24.535156 11.886719 24.835938 11.496094 25.261719 11.167969 C 25.6875 10.839844 26.214844 10.597656 26.851563 10.4375 C 27.453125 10.289063 28.019531 10.253906 28.546875 10.332031 C 29.074219 10.40625 29.535156 10.605469 29.925781 10.925781 C 30.3125 11.246094 30.59375 11.632813 30.765625 12.082031 C 30.9375 12.53125 31.164063 13.335938 31.453125 14.492188 Z M 28.089844 13.453125 C 27.957031 12.929688 27.847656 12.601563 27.75 12.46875 C 27.65625 12.339844 27.519531 12.292969 27.339844 12.339844 C 27.1875 12.378906 27.085938 12.464844 27.035156 12.605469 C 26.980469 12.742188 27.027344 13.101563 27.171875 13.679688 L 28.480469 18.929688 C 28.644531 19.582031 28.773438 19.980469 28.863281 20.117188 C 28.953125 20.257813 29.097656 20.304688 29.292969 20.253906 C 29.492188 20.207031 29.59375 20.085938 29.609375 19.894531 C 29.617188 19.707031 29.542969 19.28125 29.375 18.617188 Z M 31.925781 9.347656 L 34.019531 8.9375 C 35.414063 8.667969 36.371094 8.535156 36.886719 8.546875 C 37.398438 8.5625 37.855469 8.757813 38.253906 9.140625 C 38.652344 9.523438 38.945313 10.195313 39.132813 11.167969 C 39.304688 12.054688 39.3125 12.667969 39.148438 13.015625 C 38.992188 13.363281 38.59375 13.628906 37.957031 13.816406 C 38.570313 13.847656 39.003906 13.964844 39.253906 14.171875 C 39.5 14.375 39.667969 14.574219 39.757813 14.769531 C 39.847656 14.960938 39.980469 15.519531 40.160156 16.4375 L 40.742188 19.4375 L 37.996094 19.972656 L 37.261719 16.191406 C 37.144531 15.582031 37.019531 15.214844 36.894531 15.085938 C 36.769531 14.960938 36.503906 14.9375 36.097656 15.015625 L 37.097656 20.144531 L 34.136719 20.722656 Z M 35.261719 10.714844 L 35.753906 13.246094 C 36.085938 13.179688 36.308594 13.089844 36.425781 12.972656 C 36.542969 12.855469 36.550781 12.546875 36.453125 12.046875 L 36.332031 11.421875 C 36.261719 11.058594 36.152344 10.835938 36 10.75 C 35.851563 10.660156 35.605469 10.648438 35.261719 10.714844 Z M 40.476563 7.648438 L 43.488281 7.277344 C 44.304688 7.179688 44.941406 7.164063 45.390625 7.238281 C 45.847656 7.3125 46.199219 7.457031 46.449219 7.671875 C 46.699219 7.886719 46.886719 8.160156 47.003906 8.496094 C 47.125 8.828125 47.226563 9.355469 47.316406 10.074219 L 47.441406 11.078125 C 47.53125 11.8125 47.519531 12.355469 47.410156 12.710938 C 47.300781 13.066406 47.050781 13.359375 46.667969 13.589844 C 46.285156 13.816406 45.769531 13.972656 45.117188 14.054688 L 44.3125 14.152344 L 44.882813 18.785156 L 41.890625 19.148438 Z M 43.710938 9.25 L 44.070313 12.175781 C 44.15625 12.167969 44.230469 12.164063 44.289063 12.15625 C 44.566406 12.121094 44.746094 12.03125 44.835938 11.882813 C 44.925781 11.734375 44.945313 11.445313 44.894531 11.023438 L 44.777344 10.078125 C 44.730469 9.683594 44.636719 9.433594 44.5 9.332031 C 44.363281 9.230469 44.101563 9.199219 43.710938 9.25 Z M 55.058594 9.648438 L 52.265625 9.84375 L 52.207031 8.988281 C 52.179688 8.585938 52.125 8.335938 52.046875 8.230469 C 51.96875 8.125 51.84375 8.078125 51.675781 8.089844 C 51.496094 8.105469 51.363281 8.1875 51.28125 8.339844 C 51.199219 8.492188 51.167969 8.722656 51.191406 9.023438 C 51.21875 9.40625 51.289063 9.695313 51.40625 9.882813 C 51.523438 10.070313 51.820313 10.285156 52.308594 10.53125 C 53.699219 11.230469 54.585938 11.824219 54.972656 12.308594 C 55.355469 12.792969 55.585938 13.601563 55.664063 14.738281 C 55.722656 15.558594 55.667969 16.171875 55.503906 16.578125 C 55.335938 16.980469 54.988281 17.335938 54.457031 17.636719 C 53.921875 17.941406 53.289063 18.117188 52.554688 18.167969 C 51.75 18.226563 51.050781 18.121094 50.464844 17.855469 C 49.871094 17.589844 49.472656 17.230469 49.261719 16.769531 C 49.054688 16.308594 48.921875 15.648438 48.859375 14.78125 L 48.808594 14.027344 L 51.597656 13.832031 L 51.695313 15.238281 C 51.726563 15.671875 51.785156 15.945313 51.871094 16.0625 C 51.960938 16.179688 52.101563 16.234375 52.304688 16.21875 C 52.503906 16.207031 52.648438 16.117188 52.734375 15.953125 C 52.820313 15.789063 52.851563 15.550781 52.832031 15.242188 C 52.78125 14.5625 52.660156 14.125 52.460938 13.925781 C 52.253906 13.730469 51.761719 13.414063 50.980469 12.976563 C 50.195313 12.53125 49.675781 12.207031 49.417969 12 C 49.160156 11.792969 48.9375 11.5 48.75 11.113281 C 48.5625 10.730469 48.449219 10.230469 48.40625 9.617188 C 48.34375 8.734375 48.410156 8.078125 48.609375 7.652344 C 48.804688 7.226563 49.148438 6.882813 49.636719 6.613281 C 50.125 6.351563 50.726563 6.191406 51.4375 6.140625 C 52.222656 6.085938 52.894531 6.167969 53.460938 6.378906 C 54.03125 6.59375 54.414063 6.886719 54.625 7.257813 C 54.828125 7.628906 54.960938 8.273438 55.023438 9.191406 Z M 59.273438 6.023438 L 62.28125 6.023438 C 63.230469 6.023438 63.949219 6.09375 64.4375 6.246094 C 64.925781 6.390625 65.324219 6.691406 65.625 7.140625 C 65.925781 7.59375 66.074219 8.320313 66.074219 9.320313 C 66.074219 10 65.96875 10.472656 65.753906 10.738281 C 65.542969 11.007813 65.125 11.210938 64.5 11.355469 C 65.195313 11.511719 65.667969 11.773438 65.917969 12.136719 C 66.164063 12.503906 66.289063 13.0625 66.289063 13.816406 L 66.289063 14.890625 C 66.289063 15.671875 66.199219 16.253906 66.019531 16.632813 C 65.839844 17.007813 65.554688 17.265625 65.164063 17.402344 C 64.773438 17.542969 63.972656 17.609375 62.761719 17.609375 L 59.273438 17.609375 Z M 62.289063 8.003906 L 62.289063 10.582031 C 62.417969 10.578125 62.515625 10.574219 62.589844 10.574219 C 62.886719 10.574219 63.074219 10.5 63.152344 10.355469 C 63.234375 10.210938 63.277344 9.792969 63.277344 9.109375 C 63.277344 8.742188 63.242188 8.492188 63.175781 8.347656 C 63.105469 8.199219 63.023438 8.105469 62.914063 8.070313 C 62.808594 8.03125 62.597656 8.007813 62.289063 8.003906 Z M 62.289063 12.386719 L 62.289063 15.625 C 62.710938 15.613281 62.984375 15.546875 63.101563 15.425781 C 63.21875 15.308594 63.277344 15.015625 63.277344 14.546875 L 63.277344 13.46875 C 63.277344 12.972656 63.222656 12.671875 63.117188 12.566406 C 63.011719 12.460938 62.734375 12.398438 62.289063 12.386719 Z M 68.175781 6.09375 L 70.304688 6.242188 C 71.722656 6.339844 72.679688 6.460938 73.171875 6.605469 C 73.667969 6.75 74.058594 7.058594 74.34375 7.53125 C 74.628906 8.003906 74.734375 8.730469 74.667969 9.71875 C 74.605469 10.617188 74.449219 11.214844 74.203125 11.507813 C 73.960938 11.800781 73.507813 11.957031 72.84375 11.972656 C 73.429688 12.160156 73.816406 12.386719 74.003906 12.648438 C 74.191406 12.910156 74.300781 13.144531 74.335938 13.355469 C 74.375 13.566406 74.355469 14.140625 74.292969 15.074219 L 74.078125 18.121094 L 71.289063 17.925781 L 71.558594 14.085938 C 71.601563 13.464844 71.574219 13.082031 71.488281 12.925781 C 71.402344 12.773438 71.152344 12.679688 70.738281 12.648438 L 70.375 17.863281 L 67.367188 17.652344 Z M 71.042969 8.28125 L 70.863281 10.851563 C 71.203125 10.875 71.441406 10.84375 71.585938 10.761719 C 71.726563 10.679688 71.816406 10.382813 71.851563 9.871094 L 71.894531 9.238281 C 71.921875 8.871094 71.875 8.625 71.75 8.503906 C 71.625 8.378906 71.390625 8.304688 71.042969 8.28125 Z M 79.46875 7.195313 L 78.257813 18.722656 L 75.257813 18.40625 L 76.46875 6.882813 Z M 90.648438 9.089844 L 88.636719 20.503906 L 86.042969 20.046875 L 87.402344 12.339844 L 85.003906 19.863281 L 83.164063 19.539063 L 83.398438 11.816406 L 82.070313 19.34375 L 79.476563 18.886719 L 81.488281 7.476563 L 85.332031 8.152344 C 85.324219 8.859375 85.300781 9.6875 85.261719 10.640625 L 85.160156 13.617188 L 86.777344 8.40625 Z M 97.671875 17.984375 C 97.390625 19.117188 97.164063 19.910156 96.996094 20.367188 C 96.824219 20.824219 96.550781 21.210938 96.175781 21.53125 C 95.796875 21.851563 95.34375 22.054688 94.816406 22.144531 C 94.289063 22.234375 93.703125 22.199219 93.070313 22.042969 C 92.46875 21.890625 91.953125 21.65625 91.523438 21.339844 C 91.089844 21.023438 90.78125 20.632813 90.585938 20.167969 C 90.394531 19.703125 90.328125 19.230469 90.386719 18.753906 C 90.449219 18.273438 90.621094 17.457031 90.910156 16.300781 L 91.390625 14.378906 C 91.671875 13.246094 91.894531 12.453125 92.066406 11.996094 C 92.238281 11.539063 92.511719 11.152344 92.890625 10.832031 C 93.265625 10.515625 93.71875 10.308594 94.25 10.21875 C 94.777344 10.132813 95.359375 10.164063 95.992188 10.324219 C 96.59375 10.472656 97.109375 10.707031 97.539063 11.023438 C 97.96875 11.339844 98.285156 11.730469 98.476563 12.195313 C 98.671875 12.664063 98.738281 13.136719 98.675781 13.609375 C 98.617188 14.089844 98.441406 14.902344 98.152344 16.0625 Z M 95.671875 13.5625 C 95.800781 13.039063 95.855469 12.699219 95.832031 12.539063 C 95.8125 12.378906 95.714844 12.273438 95.53125 12.230469 C 95.378906 12.191406 95.246094 12.222656 95.136719 12.320313 C 95.027344 12.414063 94.898438 12.753906 94.753906 13.335938 L 93.445313 18.585938 C 93.28125 19.238281 93.210938 19.648438 93.222656 19.8125 C 93.238281 19.980469 93.34375 20.085938 93.539063 20.136719 C 93.738281 20.1875 93.886719 20.128906 93.988281 19.96875 C 94.085938 19.804688 94.21875 19.394531 94.382813 18.730469 Z M 101.117188 11.90625 L 103.976563 12.835938 C 104.878906 13.128906 105.539063 13.421875 105.960938 13.714844 C 106.378906 14.003906 106.664063 14.414063 106.808594 14.933594 C 106.957031 15.457031 106.875 16.191406 106.5625 17.144531 C 106.355469 17.789063 106.109375 18.207031 105.824219 18.394531 C 105.539063 18.582031 105.078125 18.648438 104.4375 18.589844 C 105.050781 18.957031 105.417969 19.351563 105.542969 19.777344 C 105.664063 20.199219 105.609375 20.769531 105.378906 21.488281 L 105.046875 22.507813 C 104.804688 23.253906 104.542969 23.777344 104.253906 24.082031 C 103.96875 24.382813 103.617188 24.539063 103.203125 24.550781 C 102.785156 24.5625 102.003906 24.378906 100.851563 24.003906 L 97.535156 22.925781 Z M 103.371094 14.722656 L 102.574219 17.175781 C 102.695313 17.207031 102.792969 17.238281 102.863281 17.261719 C 103.144531 17.351563 103.34375 17.339844 103.464844 17.226563 C 103.589844 17.113281 103.757813 16.730469 103.96875 16.078125 C 104.082031 15.730469 104.128906 15.480469 104.109375 15.320313 C 104.089844 15.160156 104.035156 15.046875 103.945313 14.980469 C 103.855469 14.910156 103.664063 14.824219 103.371094 14.722656 Z M 102.015625 18.890625 L 101.015625 21.972656 C 101.421875 22.089844 101.699219 22.109375 101.847656 22.03125 C 101.996094 21.957031 102.144531 21.695313 102.289063 21.25 L 102.621094 20.222656 C 102.773438 19.753906 102.816406 19.449219 102.75 19.316406 C 102.683594 19.183594 102.4375 19.039063 102.015625 18.890625 Z M 54.019531 69.078125 C 56.730469 68.585938 58.613281 69.300781 60.46875 69.863281 C 57.976563 72.746094 54.503906 72.117188 48.714844 72.085938 C 51.4375 71.363281 52.355469 69.382813 54.019531 69.078125 Z M 45.433594 66.289063 C 48.195313 66.289063 50.546875 66.84375 52.269531 67.730469 C 49.269531 68.097656 49.105469 70.621094 46.414063 71.023438 C 41.78125 71.710938 35.886719 70.554688 35.089844 69.871094 C 40.332031 69.757813 42.214844 66.289063 45.433594 66.289063 Z M 57.085938 53.386719 C 57.933594 53.675781 58.613281 54.164063 58.992188 54.703125 C 58.941406 54.679688 58.882813 54.660156 58.824219 54.640625 C 56.789063 53.945313 54.78125 54.238281 53.996094 55.261719 C 53.75 54.871094 53.664063 54.464844 53.785156 54.097656 C 54.097656 53.191406 55.578125 52.875 57.085938 53.386719 Z M 57.085938 53.386719 "/>
</g>
<path style=" stroke:none;fill-rule:evenodd;fill:rgb(89.0625%,0%,8.616638%);fill-opacity:1;" d="M 61.636719 22.78125 L 61.636719 137.847656 L 111.265625 33.628906 C 96.140625 26.667969 79.332031 22.78125 61.636719 22.78125 Z M 61.636719 22.78125 "/>
<g clip-path="url(#clip2)" clip-rule="nonzero">
<path style="fill:none;stroke-width:10.001;stroke-linecap:butt;stroke-linejoin:miter;stroke:rgb(10.594177%,9.812927%,9.423828%);stroke-opacity:1;stroke-miterlimit:4;" d="M 616.367188 1208.1875 L 616.367188 57.523438 L 1112.65625 1099.710938 C 961.40625 1169.320313 793.320313 1208.1875 616.367188 1208.1875 Z M 616.367188 1208.1875 " transform="matrix(0.1,0,0,-0.1,0,143.6)"/>
</g>
<path style=" stroke:none;fill-rule:evenodd;fill:rgb(100%,100%,100%);fill-opacity:1;" d="M 44.140625 44.535156 C 49.972656 44.535156 52.859375 48.207031 48.554688 56.550781 C 46.355469 60.816406 47.746094 63.066406 51.539063 65.0625 C 49.171875 63.332031 48.027344 60.65625 48.960938 58.707031 C 50.011719 56.5 53.339844 56.039063 56.367188 57.679688 C 56.546875 57.777344 56.71875 57.878906 56.890625 57.984375 C 54.414063 57.453125 52.125 58.144531 51.265625 59.890625 C 50.363281 61.710938 51.277344 64.144531 53.332031 65.917969 C 55.582031 66.90625 58.402344 67.894531 61.636719 69.105469 C 64.871094 67.894531 67.691406 66.90625 69.945313 65.917969 C 72 64.144531 72.914063 61.710938 72.011719 59.890625 C 71.148438 58.144531 68.863281 57.453125 66.386719 57.984375 C 66.554688 57.878906 66.730469 57.777344 66.90625 57.679688 C 69.933594 56.039063 73.261719 56.5 74.316406 58.707031 C 75.25 60.65625 74.105469 63.332031 71.738281 65.0625 C 75.53125 63.066406 76.917969 60.816406 74.722656 56.550781 C 70.414063 48.207031 73.300781 44.535156 79.132813 44.535156 C 76.371094 48.691406 78.945313 49.6875 80.171875 52.664063 C 81.171875 55.085938 81.484375 57.085938 81.0625 58.699219 C 78.53125 68.292969 67.527344 66.457031 61.636719 69.105469 C 55.746094 66.457031 44.742188 68.292969 42.214844 58.699219 C 41.789063 57.085938 42.105469 55.085938 43.101563 52.664063 C 44.328125 49.6875 46.902344 48.691406 44.140625 44.535156 Z M 63.726563 60.796875 C 67.289063 59.703125 70.378906 59.386719 70.886719 61.027344 C 71.390625 62.667969 68.894531 64.902344 65.332031 66 C 64.023438 66.402344 62.753906 66.59375 61.636719 66.597656 C 60.523438 66.59375 59.25 66.402344 57.945313 66 C 54.378906 64.902344 51.886719 62.667969 52.390625 61.027344 C 52.894531 59.386719 55.984375 59.703125 59.550781 60.796875 C 60.34375 60.316406 61.035156 60.007813 61.636719 59.832031 C 62.242188 60.007813 62.933594 60.316406 63.726563 60.796875 Z M 61.917969 56.757813 C 63.21875 56.003906 64.445313 56.109375 65.328125 56.878906 C 64.59375 56.652344 63.734375 56.765625 62.84375 57.28125 C 62.417969 57.527344 62.015625 57.847656 61.636719 58.226563 C 61.261719 57.847656 60.859375 57.527344 60.433594 57.28125 C 59.539063 56.765625 58.683594 56.652344 57.949219 56.878906 C 58.828125 56.109375 60.054688 56.003906 61.359375 56.757813 C 61.453125 56.8125 61.546875 56.871094 61.636719 56.933594 C 61.730469 56.871094 61.824219 56.8125 61.917969 56.757813 Z M 66.1875 53.386719 C 67.695313 52.875 69.179688 53.191406 69.488281 54.097656 C 69.613281 54.464844 69.527344 54.867188 69.277344 55.261719 C 68.492188 54.238281 66.484375 53.945313 64.449219 54.640625 C 64.390625 54.660156 64.332031 54.679688 64.285156 54.703125 C 64.660156 54.164063 65.339844 53.675781 66.1875 53.386719 Z M 77.839844 66.289063 C 81.058594 66.289063 82.941406 69.757813 88.183594 69.871094 C 87.390625 70.554688 81.496094 71.710938 76.863281 71.023438 C 74.171875 70.621094 74.003906 68.09375 71.007813 67.730469 C 72.726563 66.84375 75.082031 66.289063 77.839844 66.289063 Z M 69.257813 69.078125 C 70.921875 69.382813 71.839844 71.363281 74.5625 72.085938 C 68.769531 72.117188 65.300781 72.742188 62.808594 69.863281 C 64.660156 69.300781 66.542969 68.585938 69.257813 69.078125 Z M 54.019531 69.078125 C 56.734375 68.585938 58.613281 69.300781 60.46875 69.863281 C 57.976563 72.742188 54.503906 72.117188 48.714844 72.085938 C 51.4375 71.363281 52.355469 69.382813 54.019531 69.078125 Z M 45.433594 66.289063 C 48.195313 66.289063 50.546875 66.84375 52.269531 67.730469 C 49.269531 68.09375 49.105469 70.621094 46.414063 71.023438 C 41.78125 71.710938 35.886719 70.554688 35.089844 69.871094 C 40.332031 69.757813 42.214844 66.289063 45.433594 66.289063 Z M 57.085938 53.386719 C 57.933594 53.675781 58.613281 54.164063 58.992188 54.703125 C 58.941406 54.679688 58.882813 54.660156 58.824219 54.640625 C 56.789063 53.945313 54.78125 54.238281 53.996094 55.261719 C 53.75 54.867188 53.664063 54.464844 53.789063 54.097656 C 54.097656 53.191406 55.578125 52.875 57.085938 53.386719 Z M 57.085938 53.386719 "/>
</g>
</svg>
